<?xml version="1.0" standalone="no"?>
<!DOCTYPE svg PUBLIC "-//W3C//DTD SVG 20010904//EN"
 "http://www.w3.org/TR/2001/REC-SVG-20010904/DTD/svg10.dtd">
<svg version="1.0" xmlns="http://www.w3.org/2000/svg"
 width="1024.000000pt" height="1024.000000pt" viewBox="0 0 1024.000000 1024.000000"
 preserveAspectRatio="xMidYMid meet">

<g transform="translate(0.000000,1024.000000) scale(0.100000,-0.100000)"
fill="#000000" stroke="none">
<path d="M6051 5481 l-41 -49 -83 2 c-81 1 -83 0 -135 -38 -36 -26 -67 -40
-97 -44 -38 -4 -45 -9 -54 -35 -29 -80 -11 -130 81 -225 l71 -73 -6 -72 c-3
-43 -19 -116 -42 -182 -71 -215 -70 -299 5 -526 52 -158 70 -263 70 -413 0
-133 -12 -226 -37 -288 -13 -32 -25 -44 -61 -59 -50 -22 -71 -44 -72 -75 0
-35 20 -44 101 -44 66 0 79 3 102 24 53 49 79 129 116 355 32 195 54 251 128
325 48 50 111 86 177 105 58 16 55 6 -7 -23 -130 -62 -209 -177 -215 -316 -3
-58 1 -88 18 -132 24 -65 93 -147 151 -180 21 -12 39 -25 39 -30 0 -4 -42 -5
-93 -1 -107 7 -156 -5 -187 -44 -25 -32 -26 -69 -3 -82 22 -12 29 -7 -102 -68
-207 -97 -470 -190 -658 -233 -54 -13 -96 -24 -94 -27 8 -7 253 26 384 53 413
82 835 269 1165 513 257 192 376 346 414 537 31 155 -4 296 -130 539 -94 178
-116 244 -116 338 0 58 5 83 23 118 60 113 205 144 282 59 15 -17 20 -37 21
-85 0 -70 14 -95 49 -95 40 0 65 44 65 114 -1 79 -26 136 -79 174 -88 64 -204
68 -311 11 -109 -58 -170 -155 -178 -285 -7 -116 28 -226 131 -411 141 -254
160 -415 70 -592 -21 -41 -43 -76 -49 -78 -7 -2 -13 30 -17 94 -4 75 -12 118
-36 182 -68 185 -162 284 -415 437 -103 62 -180 135 -211 201 -38 80 -31 162
38 418 21 75 30 196 16 210 -4 3 -28 -8 -53 -26 -26 -17 -48 -30 -50 -28 -2 2
-7 24 -12 48 -5 25 -14 46 -20 48 -6 2 -30 -18 -53 -46z"/>
<path d="M6140 2660 c-46 -46 0 -98 64 -74 10 4 16 18 16 40 0 28 -5 36 -26
44 -33 13 -31 13 -54 -10z"/>
<path d="M2827 2627 c-16 -11 -17 -34 -15 -231 3 -239 5 -246 61 -232 26 6 27
9 27 75 l0 69 88 4 c140 6 193 52 193 166 0 79 -45 133 -127 152 -59 14 -207
12 -227 -3z m218 -77 c30 -11 54 -60 47 -95 -8 -45 -37 -60 -116 -60 l-71 0
-3 69 c-2 38 -1 75 2 83 6 16 101 18 141 3z"/>
<path d="M5087 2613 c-8 -15 -54 -117 -102 -226 -78 -179 -86 -200 -72 -214
27 -27 64 -8 92 47 l25 50 111 0 110 0 21 -50 c14 -34 28 -52 43 -56 23 -6 65
10 65 24 0 4 -45 106 -98 227 l-98 220 -41 3 c-37 3 -44 0 -56 -25z m95 -173
l36 -90 -78 0 -78 0 36 90 c19 50 38 90 41 90 3 0 23 -41 43 -90z"/>
<path d="M3707 2613 c-4 -3 -7 -26 -7 -50 0 -36 -3 -43 -20 -43 -33 0 -51 -67
-19 -71 5 -1 15 -2 22 -3 8 -1 13 -35 17 -119 5 -115 6 -120 33 -143 30 -26
77 -31 122 -14 22 8 26 15 23 42 -3 30 -6 33 -31 30 -49 -5 -57 11 -57 114 l0
94 39 0 c42 0 57 17 46 51 -5 14 -16 19 -46 19 -37 0 -39 2 -39 31 0 46 -16
69 -49 69 -15 0 -31 -3 -34 -7z"/>
<path d="M4443 2519 c-44 -13 -73 -53 -73 -101 0 -49 31 -82 91 -98 65 -18 99
-38 99 -59 0 -36 -70 -42 -136 -12 -31 14 -45 16 -53 8 -41 -41 35 -97 131
-97 87 0 147 56 134 125 -8 43 -34 64 -114 95 -58 22 -67 29 -67 50 0 22 5 25
37 28 20 2 50 -4 67 -12 39 -21 48 -20 61 5 16 29 -8 54 -65 68 -51 13 -68 13
-112 0z"/>
<path d="M5604 2516 c-18 -8 -35 -19 -38 -25 -11 -18 -26 -13 -26 10 0 17 -5
20 -37 17 l-38 -3 -3 -172 -2 -173 39 0 c26 0 41 5 45 16 3 9 6 60 6 115 0 93
2 102 25 124 13 14 34 25 45 25 12 0 32 -11 45 -25 24 -23 25 -30 25 -139 0
-114 0 -116 24 -122 13 -3 34 -1 45 6 19 10 21 19 21 121 0 103 1 111 25 134
41 42 95 29 114 -26 6 -18 11 -76 11 -130 0 -89 2 -98 20 -104 11 -3 29 -3 40
0 19 6 20 15 20 145 0 134 -1 139 -26 169 -48 57 -143 60 -194 6 l-23 -25 -15
21 c-16 23 -70 49 -99 49 -10 -1 -32 -7 -49 -14z"/>
<path d="M6435 2521 c-81 -20 -131 -94 -123 -186 11 -130 153 -198 248 -118
37 30 43 27 35 -20 -14 -75 -83 -102 -180 -72 -48 16 -58 16 -66 4 -29 -45 19
-80 119 -87 81 -6 142 17 180 66 l27 35 0 186 0 186 -35 0 c-29 0 -36 -4 -38
-22 -4 -28 -14 -29 -37 -3 -15 17 -78 42 -95 39 -3 -1 -19 -4 -35 -8z m123
-96 c38 -32 46 -65 28 -110 -20 -48 -73 -71 -122 -55 -43 15 -64 44 -64 91 0
87 92 130 158 74z"/>
<path d="M7276 2520 c-41 -13 -65 -38 -72 -77 -13 -67 18 -101 121 -133 50
-16 65 -27 65 -50 0 -33 -64 -40 -130 -14 -48 19 -73 13 -68 -18 8 -59 173
-88 235 -42 31 23 49 77 39 118 -8 32 -37 52 -118 80 -48 16 -63 26 -63 40 0
42 33 44 137 10 10 -4 21 2 28 16 16 30 -8 54 -65 69 -50 13 -69 13 -109 1z"/>
<path d="M3322 2505 c-39 -17 -50 -41 -29 -62 12 -13 21 -14 48 -4 53 18 97
14 124 -14 37 -37 31 -45 -32 -45 -148 0 -216 -66 -171 -165 25 -55 112 -71
183 -35 22 11 40 20 41 20 1 0 4 -9 7 -20 6 -23 45 -28 65 -8 8 8 12 53 12
135 0 142 -11 176 -65 199 -44 18 -140 17 -183 -1z m163 -212 c-13 -52 -55
-79 -107 -68 -40 9 -54 39 -33 71 14 21 23 24 81 24 l66 0 -7 -27z"/>
<path d="M4012 2505 c-28 -12 -33 -19 -30 -42 3 -31 7 -31 100 -17 55 8 98
-13 98 -46 0 -17 -7 -20 -52 -20 -123 -1 -178 -36 -178 -113 0 -23 6 -49 13
-57 47 -61 148 -68 201 -15 16 17 17 16 23 -4 4 -17 13 -21 44 -21 l39 0 0
125 c0 142 -10 173 -63 205 -39 24 -145 27 -195 5z m168 -207 c0 -34 -19 -57
-59 -69 -44 -13 -76 -2 -86 32 -14 42 41 70 118 60 19 -2 27 -9 27 -23z"/>
<path d="M6134 2507 c-2 -7 -3 -85 -2 -172 l3 -160 40 0 40 0 3 150 c3 188 2
195 -44 195 -19 0 -37 -6 -40 -13z"/>
<path d="M6842 2505 c-28 -12 -33 -19 -30 -42 2 -23 7 -28 28 -25 14 1 48 5
76 8 44 5 55 3 73 -15 39 -39 28 -48 -59 -53 -89 -5 -124 -22 -149 -73 -20
-40 0 -100 42 -126 43 -27 127 -22 161 10 23 22 23 22 29 2 7 -27 32 -36 63
-23 23 11 24 14 24 127 0 134 -12 175 -62 205 -40 24 -145 27 -196 5z m168
-208 c0 -58 -75 -96 -125 -63 -29 19 -33 60 -7 75 9 6 43 11 75 11 53 0 57 -2
57 -23z"/>
</g>
</svg>
