<?xml version="1.0" encoding="UTF-8" standalone="no"?>
<!-- Created with Inkscape (http://www.inkscape.org/) -->

<svg
   width="210mm"
   height="297mm"
   viewBox="0 0 210 297"
   version="1.1"
   id="svg1"
   inkscape:version="1.4.2 (f4327f4, 2025-05-13)"
   sodipodi:docname="logo.svg"
   xmlns:inkscape="http://www.inkscape.org/namespaces/inkscape"
   xmlns:sodipodi="http://sodipodi.sourceforge.net/DTD/sodipodi-0.dtd"
   xmlns="http://www.w3.org/2000/svg"
   xmlns:svg="http://www.w3.org/2000/svg">
  <sodipodi:namedview
     id="namedview1"
     pagecolor="#ffffff"
     bordercolor="#000000"
     borderopacity="0.25"
     inkscape:showpageshadow="2"
     inkscape:pageopacity="0.0"
     inkscape:pagecheckerboard="0"
     inkscape:deskcolor="#d1d1d1"
     inkscape:document-units="mm"
     inkscape:zoom="0.72604517"
     inkscape:cx="396.66954"
     inkscape:cy="559.88252"
     inkscape:window-width="1920"
     inkscape:window-height="1017"
     inkscape:window-x="-8"
     inkscape:window-y="-8"
     inkscape:window-maximized="1"
     inkscape:current-layer="layer1" />
  <defs
     id="defs1">
    <clipPath
       id="clip-2">
      <path
         clip-rule="nonzero"
         d="M 1278.1016,276.19922 H 1467 V 562 h -188.8984 z m 0,0"
         id="path2" />
    </clipPath>
    <clipPath
       id="clip-3">
      <path
         clip-rule="nonzero"
         d="m 343.60156,1065 h 202.59766 v 226 H 343.60156 Z m 0,0"
         id="path3" />
    </clipPath>
    <clipPath
       id="clip-4">
      <path
         clip-rule="nonzero"
         d="M 561.10156,1086 H 981 v 405 H 561.10156 Z m 0,0"
         id="path4" />
    </clipPath>
    <clipPath
       id="clip-5">
      <path
         clip-rule="nonzero"
         d="m 895.10156,1651 h 878.09764 v 294 H 895.10156 Z m 0,0"
         id="path5" />
    </clipPath>
  </defs>
  <g
     inkscape:label="Camada 1"
     inkscape:groupmode="layer"
     id="layer1">
    <path
       fill-rule="nonzero"
       fill="#f3cb51"
       fill-opacity="1"
       d="m 108.76504,87.61392 c 1.96902,-3.06412 4.48412,-4.706611 7.50098,-4.887715 3.09123,-0.06928 5.74776,1.372029 7.90052,4.298575 2.14649,3.0089 3.30811,6.60793 3.45721,10.69497 0.15411,4.18575 -0.81259,7.69214 -2.84582,10.39452 -1.0504,1.57885 -2.22722,2.77116 -3.60478,3.64435 -1.23818,0.78803 -2.60898,1.20262 -4.06455,1.23725 l -0.10571,0.002 c -2.95802,0.0707 -5.5671,-1.38503 -7.74532,-4.3078 -2.22775,-2.81659 -3.39804,-6.39365 -3.47759,-10.61028 -0.22004,-3.97707 0.78896,-7.51107 2.98506,-10.46661"
       id="path17"
       style="stroke-width:0.125108" />
    <path
       fill-rule="nonzero"
       fill="#f3cb51"
       fill-opacity="1"
       d="m 123.76535,113.36509 c 7.33397,-6.93122 14.53014,-9.88442 21.31905,-8.76882 l 0.11489,0.0276 c 0.88596,0.28731 1.76129,0.63687 2.59468,1.04677 5.8014,2.8367 10.29056,8.67569 13.33338,17.35101 1.03242,3.00706 1.92461,6.29628 2.65896,9.80866 0.84779,5.61124 0.7564,10.18493 -0.28474,13.6496 -1.64389,4.30043 -4.49988,6.52651 -8.48744,6.62102 -3.6685,0.0861 -8.35931,-1.7132 -13.97069,-5.36316 -2.69692,-1.96821 -5.64168,-2.93126 -8.75799,-2.85591 -0.39306,0.008 -0.78911,0.0323 -1.22138,0.0753 -0.91858,0.0566 -1.82557,0.0945 -2.68754,0.11511 -5.10986,0.11837 -9.26627,-0.39167 -12.34579,-1.51431 -3.1225,-1.08048 -5.16191,-2.75388 -6.05456,-4.96679 -1.206,-2.98506 -0.37462,-6.82315 2.57378,-11.76606 3.80993,-5.49981 7.58202,-10.0258 11.21539,-13.4601"
       id="path18"
       style="stroke-width:0.125108" />
    <g
       clip-path="url(#clip-2)"
       id="g19"
       transform="matrix(0.13065429,0,0,0.11979471,-38.778766,29.720787)">
      <path
         fill-rule="nonzero"
         fill="#f3cb51"
         fill-opacity="1"
         d="m 1443.1719,516 c -17.461,29.5 -39.7422,44.78125 -66.1836,45.46094 h -0.1992 c -25.918,-0.25 -48.5586,-14.39063 -67.1602,-41.80078 -20.3281,-26.92188 -30.6875,-60.0586 -30.8203,-98.5 -0.4297,-39.39063 7.8398,-73.16016 24.5312,-100.35157 17.629,-28.70703 39.7305,-43.61718 65.6993,-44.25 l 0.8125,-0.0195 c 25.207,-0.33984 48.2968,13.05078 68.6289,39.78125 l 0.3281,0.5 c 17.4102,28.57813 26.4922,61.10938 27.7305,99.32031 0.7812,19.23829 -1.1797,37.6211 -5.7578,54.4375 -3.5313,15.5625 -9.4297,30.80079 -17.6094,45.42188"
         id="path19" />
    </g>
    <path
       fill-rule="nonzero"
       fill="#f3cb51"
       fill-opacity="1"
       d="m 163.73016,115.81484 c 1.08559,-2.88823 3.11478,-5.43853 6.19032,-7.78902 0.25466,-0.20356 0.52768,-0.39541 0.80326,-0.58961 0.15574,-0.10387 0.30889,-0.21195 0.4639,-0.32428 3.3644,-2.44502 7.04517,-3.72815 10.93317,-3.81943 h 0.11122 c 3.84778,-0.33646 6.74201,0.58127 8.64674,2.74363 1.84345,2.24239 2.09554,5.0744 0.7487,8.42255 -1.40611,3.31965 -3.92728,6.26677 -7.5025,8.75718 -2.06279,1.4146 -4.10889,2.44735 -6.0871,3.06793 -1.64843,0.49837 -3.2781,0.77023 -4.81075,0.80487 -0.005,0.002 -0.01,0.002 -0.01,0.002 -0.2236,0.0107 -0.44665,0.0215 -0.6599,0.0267 -1.72304,0.0383 -3.28989,-0.16894 -4.6735,-0.61818 -1.42797,-0.48669 -2.59722,-1.26399 -3.47143,-2.31218 -1.80161,-2.17312 -2.03131,-4.99204 -0.68705,-8.37247"
       id="path20"
       style="stroke-width:0.125108" />
    <path
       fill-rule="nonzero"
       fill="#f3cb51"
       fill-opacity="1"
       d="m 178.91878,92.4034 c -1.39428,2.06177 -2.90858,3.71597 -4.59282,5.02902 -1.52607,1.36922 -3.2755,2.4904 -5.2154,3.34815 l -0.30578,0.12353 c -0.51597,0.21292 -1.00592,0.41178 -1.51426,0.56996 -1.28315,0.40618 -2.52427,0.62424 -3.69254,0.65185 -1.80814,0.043 -3.48321,-0.37156 -5.00418,-1.24567 -2.80241,-1.74543 -4.21715,-4.65888 -4.21458,-8.61722 -0.25716,-4.01783 1.02179,-8.00569 3.80482,-11.852217 1.18766,-1.657009 2.49931,-3.146953 3.9023,-4.426316 1.89595,-1.721591 3.86601,-3.015469 6.03245,-3.967739 3.99934,-1.664018 7.52194,-1.642498 10.44164,0.05373 2.74127,1.621916 4.28561,4.48388 4.58725,8.515253 l 0.008,0.03453 -0.008,0.03823 c -0.18779,3.936379 -1.61065,7.888199 -4.2289,11.744639"
       id="path21"
       style="stroke-width:0.125108" />
    <g
       clip-path="url(#clip-3)"
       id="g22"
       transform="matrix(0.13065429,0,0,0.11979471,-38.778766,29.720787)">
      <path
         fill-rule="nonzero"
         fill="#f3cb51"
         fill-opacity="1"
         d="m 366.26953,1079.1914 c 18.57813,-14.6211 42.09766,-17.1328 69.92969,-7.4609 28.19531,10.289 53.30859,29.0078 74.6914,55.6601 21.85938,27.2696 33.46875,55.1602 34.55079,82.5508 1.43359,15.3477 0.17968,28.7305 -3.88672,40.8555 -3.61719,10.9336 -9.95313,20.0039 -18.71485,26.8945 l -0.6289,0.4961 c -17.78907,14.0078 -41.0625,16.25 -69.05078,6.6875 -27.7461,-8.6172 -52.8125,-27.1875 -74.37891,-55.0039 -21.25,-25.5898 -32.72656,-53.8516 -34.05078,-83.6211 -3.26172,-29.5312 3.92969,-52.0391 21.53906,-67.0586"
         id="path22" />
    </g>
    <g
       clip-path="url(#clip-4)"
       id="g23"
       transform="matrix(0.13065429,0,0,0.11979471,-38.778766,29.720787)">
      <path
         fill-rule="nonzero"
         fill="#f3cb51"
         fill-opacity="1"
         d="m 652.29687,1093.3711 0.85547,-0.3125 c 6.85157,-2.1484 13.97266,-3.8203 21.14063,-4.8984 49.7539,-7.6016 106.44922,10.8515 168.51562,54.9179 21.36328,15.3828 43.28907,33.25 65.34766,53.3828 33.24609,33.6094 55.60156,64.6172 66.51562,92.5469 11.4336,36.2813 5.09766,64.2774 -18.89062,83.1563 -22.05859,17.375 -59.80078,26.8515 -112.45313,28.1523 -26.34765,-0.8086 -49.23828,6.2656 -67.97265,21.0117 -2.35938,1.8633 -4.67578,3.8633 -7.10156,6.1055 -5.3711,4.6055 -10.71485,9.0039 -15.90625,13.0898 -30.70704,24.1797 -58.76172,39.8047 -83.22266,46.4258 -24.57422,7.0508 -45.39844,5.2344 -61.98047,-5.457 -22.32422,-14.457 -36.43359,-43.9102 -43.08203,-90.4727 -4.13281,-54.1914 -3.66016,-101.7656 1.41406,-141.3476 10.3125,-79.9414 39.625,-132.6328 86.82031,-156.3008"
         id="path23" />
    </g>
    <path
       fill-rule="nonzero"
       fill="#f3cb51"
       fill-opacity="1"
       d="m 38.305188,156.77147 -0.01477,0.008 -0.0087,0.006 c -2.729456,1.83757 -6.20761,2.10711 -10.298719,0.80998 -4.234999,-1.12629 -7.912709,-3.56383 -10.935627,-7.24192 -3.129068,-3.74924 -4.90718,-7.58262 -5.291503,-11.38747 -0.399612,-4.01787 0.745143,-7.0333 3.410279,-8.95562 l 0.08473,-0.0589 c 2.609513,-1.8423 6.07543,-2.21151 10.296171,-1.10341 l 0.07343,0.0215 c 4.058447,1.49508 7.554471,3.96396 10.677405,7.54141 1.584192,1.79183 2.8203,3.69543 3.659858,5.63743 0.848224,1.74541 1.423416,3.6308 1.713812,5.61813 0.48128,4.0829 -0.651738,7.1461 -3.366383,9.10584"
       id="path24"
       style="stroke-width:0.125108" />
    <path
       fill-rule="nonzero"
       fill="#f3cb51"
       fill-opacity="1"
       d="m 83.685087,163.27272 c -0.0023,0.002 -0.0023,0.002 -0.0023,0.002 -0.173546,0.13428 -0.343506,0.2611 -0.513463,0.38699 -1.352971,0.97377 -2.741677,1.67101 -4.14111,2.06646 -1.464767,0.39773 -2.908588,0.41319 -4.297295,0.0529 -2.86164,-0.74763 -4.88933,-2.88002 -6.019288,-6.32517 -1.018181,-2.9097 -1.059524,-6.06411 -0.13525,-9.63644 0.0735,-0.30413 0.167402,-0.60505 0.264376,-0.91388 0.05309,-0.16661 0.105644,-0.33655 0.155656,-0.51386 1.097293,-3.80343 3.202058,-6.84981 6.260178,-9.0552 l 0.08829,-0.065 c 2.86163,-2.37768 5.781443,-3.23164 8.719112,-2.54423 2.94127,0.78248 4.992398,2.90975 6.101938,6.33372 1.04782,3.42954 0.950868,7.17317 -0.281699,11.12873 -0.730837,2.26534 -1.693394,4.21426 -2.873372,5.79927 -0.992132,1.30322 -2.119027,2.41371 -3.325533,3.28362"
       id="path25"
       style="stroke-width:0.125108" />
    <path
       fill-rule="nonzero"
       fill="#f3cb51"
       fill-opacity="1"
       d="m 63.196855,144.46257 -0.164847,0.26583 c -0.278658,0.45529 -0.536906,0.88301 -0.842106,1.28919 -0.76045,1.02667 -1.611229,1.88436 -2.529892,2.54884 -1.417812,1.02438 -3.032101,1.61166 -4.821962,1.74828 -3.384256,0.13761 -6.425034,-1.41738 -9.004426,-4.5905 -2.83509,-3.07397 -4.417241,-6.97102 -4.702026,-11.57849 -0.132179,-1.97894 -0.05305,-3.89423 0.234773,-5.68879 0.393488,-2.41742 1.126895,-4.53448 2.236431,-6.4858 2.115985,-3.52925 4.951087,-5.44687 8.397094,-5.68552 3.257673,-0.20732 6.362757,1.2363 9.239181,4.29712 l 0.02655,0.03 0.02038,0.0322 c 2.423743,3.25359 3.865023,7.19984 4.290663,11.72534 0.232219,2.41504 0.100033,4.57276 -0.392978,6.54942 -0.32868,1.93361 -0.995224,3.79137 -1.986868,5.54287"
       id="path26"
       style="stroke-width:0.125108" />
    <path
       fill="none"
       stroke-width="1.71911"
       stroke-linecap="round"
       stroke-linejoin="round"
       stroke="#000000"
       stroke-opacity="1"
       stroke-miterlimit="4"
       d="m 72.586611,100.47687 c 0,0 10.350774,26.8509 -26.988777,70.53142 -37.3400788,43.67975 10.340052,65.81924 10.340052,65.81924"
       id="path27" />
    <path
       fill="none"
       stroke-width="1.71911"
       stroke-linecap="round"
       stroke-linejoin="round"
       stroke="#000000"
       stroke-opacity="1"
       stroke-miterlimit="4"
       d="m 132.29,230.51215 c 0,0 34.44313,-47.38062 18.3692,-78.44308"
       id="path28" />
    <path
       fill="none"
       stroke-width="1.71911"
       stroke-linecap="round"
       stroke-linejoin="round"
       stroke="#000000"
       stroke-opacity="1"
       stroke-miterlimit="4"
       d="m 132.29,184.17833 c 0,0 17.2341,-76.86285 -28.70462,-116.347846"
       id="path29" />
    <path
       fill="none"
       stroke-width="1.71911"
       stroke-linecap="round"
       stroke-linejoin="round"
       stroke="#000000"
       stroke-opacity="1"
       stroke-miterlimit="4"
       d="m 96.124775,62.572616 c 0,0 -32.148082,-33.690825 -46.498607,-5.789449 C 35.275122,84.68502 5.9958091,83.095409 24.367527,95.73845 c 18.372247,12.643 39.609166,-4.21112 39.609166,-4.21112"
       id="path30" />
    <path
       fill="none"
       stroke-width="1.71911"
       stroke-linecap="round"
       stroke-linejoin="round"
       stroke="#000000"
       stroke-opacity="1"
       stroke-miterlimit="4"
       d="m 73.735448,54.150026 c 0,0 -14.925211,-1.577919 -10.333428,13.68653 C 67.994313,83.101496 76.604222,96.7918 76.604222,96.7918 L 86.937117,70.471105"
       id="path31" />
    <g
       clip-path="url(#clip-5)"
       id="g32"
       transform="matrix(0.13065429,0,0,0.11979471,-38.778766,29.720787)">
      <path
         fill="none"
         stroke-width="137.414"
         stroke-linecap="round"
         stroke-linejoin="round"
         stroke="#000000"
         stroke-opacity="1"
         stroke-miterlimit="4"
         d="m 9403.4389,-5904.058 c 0,0 -1625.5988,3426.5714 1845.4651,2680.396 3471.103,-746.1363 5404.781,-1933.4004 6415.589,-659.5825"
         transform="matrix(0.0999896,0,0,0.10001,0,2249)"
         id="path32" />
    </g>
    <path
       fill="none"
       stroke-width="1.71911"
       stroke-linecap="round"
       stroke-linejoin="round"
       stroke="#000000"
       stroke-opacity="1"
       stroke-miterlimit="4"
       d="m 48.469668,67.836556 c 0,0 5.166962,-8.949486 8.617057,2.634549"
       id="path33" />
    <text
       xml:space="preserve"
       style="font-style:normal;font-variant:normal;font-weight:normal;font-stretch:normal;font-size:23.8125px;font-family:Garamond;-inkscape-font-specification:Garamond;text-align:center;writing-mode:lr-tb;direction:ltr;text-anchor:middle;fill:#161616;fill-opacity:1;stroke-width:0.264583"
       x="114.42699"
       y="250.3546"
       id="text1"><tspan
         sodipodi:role="line"
         id="tspan1"
         style="font-style:normal;font-variant:normal;font-weight:normal;font-stretch:normal;font-family:Garamond;-inkscape-font-specification:Garamond;fill:#161616;fill-opacity:1;stroke-width:0.264583"
         x="114.42699"
         y="250.3546">Patas</tspan></text>
    <text
       xml:space="preserve"
       style="font-style:normal;font-variant:normal;font-weight:normal;font-stretch:normal;font-size:23.8125px;font-family:Garamond;-inkscape-font-specification:Garamond;text-align:center;writing-mode:lr-tb;direction:ltr;text-anchor:middle;fill:#161616;fill-opacity:1;stroke-width:0.264583"
       x="166.17422"
       y="274.04172"
       id="text2"><tspan
         sodipodi:role="line"
         id="tspan2"
         style="stroke-width:0.264583"
         x="166.17422"
         y="274.04172">Amigas</tspan></text>
  </g>
</svg>
